<?xml version="1.0"?>
<svg width="640" height="200" xmlns="http://www.w3.org/2000/svg" xmlns:svg="http://www.w3.org/2000/svg">
 <!-- Created with SVG-edit - https://github.com/SVG-Edit/svgedit-->
 <g class="layer">
  <title>Layer 1</title>
  <rect fill="#ffffff" height="42" id="svg_1" stroke="#000000" stroke-width="2" transform="matrix(1 0 0 1 0 0)" width="400" x="100" y="101"/>
  <text fill="#000000" font-family="Monospace" font-size="24" id="svg_3" stroke="#000000" stroke-width="0" text-anchor="middle" x="521.5" xml:space="preserve" y="155">ms</text>
  <line fill="none" id="svg_7" stroke="#000000" stroke-width="2" x1="100" x2="100" y1="100" y2="173"/>
  <line fill="none" id="svg_8" stroke="#000000" stroke-width="2" x1="300" x2="300" y1="170" y2="102"/>
  <text fill="#000000" font-family="Monospace" font-size="24" id="svg_9" stroke="#000000" stroke-width="0" text-anchor="middle" transform="matrix(1 0 0 1 0 0)" x="101" xml:space="preserve" y="192">n</text>
  <text fill="#000000" font-family="Monospace" font-size="24" id="svg_10" stroke="#000000" stroke-width="0" text-anchor="middle" transform="matrix(1 0 0 1 0 0)" x="301" xml:space="preserve" y="193">n+1</text>
  <line fill="none" id="svg_11" stroke="#000000" stroke-width="2" x1="500" x2="500" y1="170" y2="100"/>
  <text fill="#000000" font-family="Monospace" font-size="24" id="svg_12" stroke="#000000" stroke-width="0" text-anchor="middle" x="500.5" xml:space="preserve" y="192">n+2</text>
  <line fill="none" id="svg_13" stroke="#ff0000" stroke-width="2" transform="matrix(1 0 0 1 0 0)" x1="144" x2="144" y1="70" y2="143"/>
  <line fill="none" id="svg_16" stroke="#ff0000" stroke-width="2" x1="215.5" x2="215.5" y1="70" y2="143"/>
  <text fill="#000000" font-family="Monospace" font-size="22" id="svg_17" stroke="#000000" stroke-width="0" text-anchor="middle" transform="matrix(1 0 0 1 0 0) matrix(0.660559 0 0 0.660559 26.2006 13.4079)" x="178" xml:space="preserve" y="72">createdAt</text>
  <text fill="#000000" font-family="Monospace" font-size="18" id="svg_18" stroke="#000000" stroke-width="0" text-anchor="middle" transform="matrix(0.922966 0 0 0.903614 15.4297 6.40964)" x="216.5" xml:space="preserve" y="60.38">now</text>
 </g>
</svg>
